<?xml version="1.0" standalone="no"?>
<!DOCTYPE svg PUBLIC "-//W3C//DTD SVG 20010904//EN"
 "http://www.w3.org/TR/2001/REC-SVG-20010904/DTD/svg10.dtd">
<svg version="1.0" xmlns="http://www.w3.org/2000/svg"
 width="500.000000pt" height="500.000000pt" viewBox="0 0 500.000000 500.000000"
 preserveAspectRatio="xMidYMid meet">

<g transform="translate(0.000000,500.000000) scale(0.100000,-0.100000)"
fill="#000000" stroke="none">
<path d="M2320 4914 c-19 -2 -80 -9 -135 -15 -269 -28 -573 -125 -840 -268
-351 -188 -681 -502 -905 -861 -71 -113 -179 -340 -225 -470 -50 -144 -100
-353 -116 -485 -16 -137 -17 -497 0 -630 7 -55 28 -164 47 -243 105 -431 309
-801 619 -1121 370 -381 824 -620 1345 -708 149 -25 639 -25 785 0 386 68 742
220 1056 453 439 326 761 807 894 1333 87 347 96 744 23 1096 -80 392 -271
777 -541 1091 -105 121 -131 147 -262 259 -201 172 -518 354 -761 438 -130 45
-320 92 -454 112 -100 15 -456 28 -530 19z m1622 -855 c50 -27 48 26 48 -1512
-1 -1336 -2 -1435 -18 -1467 -19 -38 -63 -57 -105 -46 -14 3 -153 133 -323
303 -165 164 -306 304 -315 311 -15 11 -24 7 -64 -28 -68 -59 -251 -144 -353
-164 -199 -39 -369 -4 -492 101 -43 37 -58 81 -42 123 6 14 110 125 232 247
320 321 312 313 360 313 38 0 46 -6 178 -137 181 -181 168 -171 193 -142 51
58 108 181 135 289 35 141 1 266 -96 353 -59 53 -89 62 -193 55 -80 -5 -180
-46 -312 -128 -38 -23 -79 -48 -90 -54 -11 -6 -58 -37 -105 -67 -148 -98 -277
-172 -355 -204 -70 -30 -79 -33 -115 -44 -57 -19 -199 -25 -265 -11 -93 18
-180 67 -254 140 -130 129 -173 289 -136 502 22 127 100 296 177 386 15 18 28
36 28 39 0 9 -423 433 -432 433 -5 0 -8 -538 -8 -1195 0 -657 3 -1195 7 -1195
4 0 89 82 190 182 l183 182 2 196 3 195 93 3 92 3 0 -238 0 -237 -297 -299
c-164 -164 -310 -305 -325 -313 -42 -22 -67 -17 -104 20 l-34 34 0 1467 0
1467 29 29 c32 31 75 38 114 17 12 -6 156 -146 320 -310 164 -164 301 -298
305 -298 4 0 37 21 74 48 173 124 393 189 558 163 125 -19 200 -53 270 -121
56 -55 63 -83 30 -134 -11 -17 -133 -144 -272 -283 -259 -257 -283 -276 -335
-257 -13 5 -91 76 -174 159 l-150 150 -24 -30 c-43 -53 -105 -182 -125 -262
-31 -123 -24 -219 24 -312 24 -46 125 -125 180 -141 57 -16 162 -9 231 15 77
27 219 99 296 152 24 16 49 32 54 34 6 2 62 38 125 80 145 96 242 148 350 190
79 31 93 34 205 34 117 0 123 -1 189 -34 119 -58 198 -147 243 -273 23 -62 27
-90 27 -183 1 -92 -4 -125 -27 -203 -31 -105 -84 -211 -145 -295 -23 -31 -42
-58 -42 -61 0 -6 372 -380 408 -410 l22 -19 0 1188 0 1189 -190 -190 -190
-189 0 -193 0 -193 -92 3 -93 3 0 232 0 233 311 310 c296 296 313 310 348 310
21 0 46 -5 58 -11z"/>
<path d="M2260 3376 c-113 -24 -257 -93 -305 -146 -19 -20 -18 -21 86 -120 57
-55 109 -100 115 -100 5 0 86 77 180 172 l169 172 -31 12 c-49 20 -143 24
-214 10z"/>
<path d="M2690 1839 c-94 -94 -168 -175 -163 -179 19 -17 80 -30 142 -30 87 0
195 31 290 83 113 61 125 71 113 94 -11 18 -197 203 -205 203 -3 0 -82 -77
-177 -171z"/>
</g>
</svg>
